<svg xmlns="http://www.w3.org/2000/svg" width="512" height="512" viewBox="0 0 512 512">
  <g fill="none" fill-rule="evenodd">
    <circle cx="256" cy="256" r="256" fill="#E1EFF6"/>
    <path fill="#7F949F" fill-rule="nonzero" d="M256.644806,96 L255.359056,96 C238.679056,96 225.111111,109.632627 225.111111,126.388265 L225.111111,131.947614 C184.824278,145.075904 155.611111,183.126217 155.611111,227.923012 L155.611111,313.408193 C155.611111,317.601952 152.217194,321.012048 148.043333,321.012048 L147.888889,321.012048 L147.657222,321.012048 C130.753278,321.012048 117,334.830892 117,351.815422 L117,352.280964 C117,369.265494 130.753278,383.084337 147.657222,383.084337 L220.041472,383.084337 C221.620667,401.969831 237.397167,418 256.594611,418 L257.1815,418 C276.378944,418 292.155444,401.969831 293.734639,383.084337 L368.203889,383.084337 C384.231361,383.084337 395,370.704795 395,352.280964 L395,351.815422 C395,333.39159 384.231361,321.012048 368.203889,321.012048 L367.972222,321.012048 L367.817778,321.012048 C363.643917,321.012048 360.25,317.601952 360.25,313.408193 L360.25,228.892892 C360.25,182.493855 329.198944,143.268048 286.888889,131.02041 L286.888889,126.388265 C286.888889,109.632627 273.320944,96 256.644806,96 Z M241,127.12207 C241,118.785797 247.665,112 255.852875,112 L257.14325,112 C265.335,112 272,118.785797 272,127.12207 L272,128.605477 C267.865375,128.080761 263.661,127.780924 259.386875,127.780924 L256.519375,127.780924 C251.241625,127.780924 246.06075,128.199118 241,129 L241,127.12207 L241,127.12207 Z M257.302624,402 L256.697376,402 C245.687421,402 236.548959,393.1004 235,383 L279,383 C277.451041,393.1004 268.312579,402 257.302624,402 Z M367.421875,337 L367.653437,337 C377.892359,337 379,347.675625 379,352.2675 L379,352.7325 C379,357.324375 377.892359,368 367.653437,368 L285.649437,368 L227.118156,368 L147.205938,368 C138.823375,368 132,361.149 132,352.7325 L132,352.2675 C132,343.851 138.823375,337 147.205938,337 L147.4375,337 L147.591875,337 L367.2675,337 L367.421875,337 Z M343.697609,229.117174 L343.697609,313.415652 C343.697609,316.077913 344.171556,318.620217 345,321 L169,321 C169.828444,318.620217 170.302391,316.077913 170.302391,313.415652 L170.302391,228.149783 C170.302391,181.196478 208.341448,143 255.092653,143 L257.944041,143 C305.230843,143 343.697609,181.62987 343.697609,229.117174 Z"/>
  </g>
</svg>
